PathFileType	4	(X/Y/Z)	C:\Users\Basilio\Documents\Thesis Gigler\squatting_fais\c3dfiles\040\SLS_pre_back5\markers_experimental.trc
DataRate	CameraRate	NumFrames	NumMarkers	Units	OrigDataRate	OrigDataStartFrame	OrigNumFrames
200.000000	200.000000	4	63	mm	200.000000	183	1469
Frame#	Time	FHD			LBHD			RBHD			C7			T10			CLAV			LSHO			LUUPA			LMUPA			LDUPA			LLEP			LMEP			LRAD			LUL			LRFIN			RSHO			RUPA1			RMUPA			RDUPA			RLEP			RMEP			RRAD			RUL			RUFIN			LASI			RASI			USACR			LSACR			RSACR			LTHI1			LTHI2			LTHI3			LTHI4			LLFC			LMFC			LTIB1			LTIB2			LTIB3			LTIB4			LLMAL			LMMAL			LHEE			LMT1			LMT2			LMT5			RTHI			RTHI2			RTHI3			RTHI4			RLFC			RMFC			RTIB1			RTIB2			RTIB3			RTIB4			RLMAL			RMMAL			RHEE			RMT1			RMT2			RMT5			*61			*62			
		X1	Y1	Z1	X2	Y2	Z2	X3	Y3	Z3	X4	Y4	Z4	X5	Y5	Z5	X6	Y6	Z6	X7	Y7	Z7	X8	Y8	Z8	X9	Y9	Z9	X10	Y10	Z10	X11	Y11	Z11	X12	Y12	Z12	X13	Y13	Z13	X14	Y14	Z14	X15	Y15	Z15	X16	Y16	Z16	X17	Y17	Z17	X18	Y18	Z18	X19	Y19	Z19	X20	Y20	Z20	X21	Y21	Z21	X22	Y22	Z22	X23	Y23	Z23	X24	Y24	Z24	X25	Y25	Z25	X26	Y26	Z26	X27	Y27	Z27	X28	Y28	Z28	X29	Y29	Z29	X30	Y30	Z30	X31	Y31	Z31	X32	Y32	Z32	X33	Y33	Z33	X34	Y34	Z34	X35	Y35	Z35	X36	Y36	Z36	X37	Y37	Z37	X38	Y38	Z38	X39	Y39	Z39	X40	Y40	Z40	X41	Y41	Z41	X42	Y42	Z42	X43	Y43	Z43	X44	Y44	Z44	X45	Y45	Z45	X46	Y46	Z46	X47	Y47	Z47	X48	Y48	Z48	X49	Y49	Z49	X50	Y50	Z50	X51	Y51	Z51	X52	Y52	Z52	X53	Y53	Z53	X54	Y54	Z54	X55	Y55	Z55	X56	Y56	Z56	X57	Y57	Z57	X58	Y58	Z58	X59	Y59	Z59	X60	Y60	Z60	X61	Y61	Z61	X62	Y62	Z62	X63	Y63	Z63	

184	0.915	-170.1164703369141	1781.892211914063	-1159.3974609375	-295.1226501464844	1733.8994140625	-1202.413452148438	-350.4846496582032	1697.043212890625	-1071.439575195313	-363.2894287109376	1577.062622070313	-1117.466674804688	-411.6410522460939	1261.324829101563	-1095.549926757813	-240.7595977783204	1496.93115234375	-1118.949829101563	-294.1350097656251	1541.147094726563	-1277.922973632813	-204.6916503906251	1377.849853515625	-1364.504760742188	-162.2986297607422	1376.194580078125	-1338.888427734375	-161.2078247070313	1325.600463867188	-1373.101684570313	-132.4930114746094	1268.390625	-1375.851318359375	-163.626953125	1232.8896484375	-1327.045776367188	109.7775192260742	1146.429809570313	-1277.869018554688	106.9428253173828	1132.343139648438	-1352.40234375	195.1777801513672	1114.544677734375	-1278.818481445313	-273.4961853027344	1527.033203125	-959.994567871094	-234.8486938476563	1329.126708984375	-880.6135864257815	-189.2531127929688	1325.732421875	-895.3099365234377	-201.5010528564454	1268.968383789063	-879.8479614257815	-164.9981536865235	1213.86376953125	-884.947448730469	-194.6357116699219	1193.485229492188	-953.425476074219	93.01351928710939	1128.498657226563	-992.8545532226565	73.12438201904298	1075.138916015625	-942.4057617187502	176.0887603759766	1101.641723632813	-978.216735839844	-251.8728942871094	1073.478149414063	-1211.423461914063	-227.6092987060547	1082.731811523438	-983.6320800781252	-422.7829895019532	1126.938232421875	-1077.878540039063	-432.3352966308595	1094.544067382813	-1103.168701171875	-426.1745910644532	1096.213256835938	-1046.5185546875	-356.0227966308594	813.2034912109377	-1251.12890625	-310.7269287109376	741.7471923828126	-1255.5771484375	-265.0237121582032	749.9041748046876	-1262.488647460938	-325.6364440917969	687.1646118164064	-1239.155029296875	-290.4021301269532	556.6027832031251	-1228.581665039063	-290.9414367675782	542.6532592773439	-1096.379028320313	-264.2935180664063	332.8361511230469	-1175.854248046875	-337.5883789062501	298.3087768554688	-1213.58984375	-295.1454162597657	287.9673156738282	-1200.435546875	-294.2184753417969	211.6392211914063	-1160.619262695313	-366.4371337890626	129.5693664550782	-1169.081420898438	-333.9264831542969	143.92919921875	-1088.048828125	-429.6246643066407	101.6288375854492	-1120.179077148438	-216.0263214111329	56.82091903686525	-1102.7353515625	-216.5435943603516	52.24148559570314	-1148.965209960938	-270.8778686523438	41.19500350952149	-1197.60986328125	-246.7454681396485	816.1643676757815	-906.7318115234377	-206.525375366211	762.6596679687501	-913.1287231445315	-175.8074951171875	768.2529907226565	-923.9497070312502	-230.0583953857422	683.4185791015626	-923.561462402344	-221.9499511718751	558.6778564453126	-937.0545654296877	-230.6697845458985	549.2020874023439	-1066.884887695313	-232.6887664794922	367.7037353515626	-955.6926879882815	-324.8323974609376	319.3470458984376	-927.4086914062502	-283.6940307617188	300.4538269042969	-938.324645996094	-284.2880859375001	250.6228179931641	-970.9586181640627	-370.3039550781251	157.1338653564453	-943.9578247070315	-349.3908691406251	165.3941345214844	-1031.486083984375	-441.8540649414064	124.024154663086	-1001.389343261719	-226.5180206298829	75.12582397460939	-1006.355651855469	-231.2294921875001	76.45606231689455	-966.2678222656252	-277.4500427246094	62.62735748291017	-914.8773193359377	nan	nan	nan	nan	nan	nan	
185	0.92	-170.1083679199219	1781.8173828125	-1160.404296875	-295.1412658691407	1733.802368164063	-1203.366455078125	-350.7273559570313	1697.04736328125	-1072.348754882813	-363.4032897949219	1577.139892578125	-1118.435302734375	-411.4901733398439	1261.637451171875	-1096.071411132813	-240.9853057861329	1497.001831054688	-1119.701782226563	-293.9697265625001	1541.376220703125	-1278.735107421875	-203.4093475341797	1379.092163085938	-1364.953735351563	-161.0309600830078	1377.520141601563	-1339.20458984375	-159.2616729736328	1326.865234375	-1373.62060546875	-130.0441436767578	1270.027709960938	-1376.372314453125	-162.4281158447266	1234.84521484375	-1328.244506835938	112.6465759277344	1149.474365234375	-1277.6826171875	109.8424682617188	1135.527099609375	-1352.044189453125	198.0156707763672	1118.276733398438	-1278.259765625	-273.7861938476563	1526.951782226563	-961.1941528320315	-233.8428955078126	1329.750854492188	-881.7944946289065	-188.5968017578125	1326.445068359375	-896.3638916015627	-199.9052276611329	1269.562622070313	-881.3166503906252	-163.2695770263672	1215.513671875	-886.5123291015627	-193.1625366210938	1194.486938476563	-954.7709960937502	94.64647674560548	1131.758178710938	-995.3065185546877	75.76540374755861	1078.282104492188	-944.7119140625002	178.3141784667969	1105.8583984375	-981.0936279296877	-251.8995819091797	1073.133056640625	-1211.697265625	-228.0779724121094	1083.033569335938	-984.189147949219	-423.3992614746095	1127.007202148438	-1078.52685546875	-432.9549865722657	1094.577758789063	-1103.765258789063	-426.441375732422	1095.98681640625	-1046.989868164063	-356.0728454589844	813.0913085937502	-1251.342895507813	-310.7223815917969	741.6861572265626	-1255.7666015625	-265.0572204589844	749.8896484375001	-1262.5908203125	-325.6198120117188	687.1321411132814	-1239.308349609375	-290.2824096679688	556.5187377929689	-1228.569458007813	-290.9620056152344	542.5939941406251	-1096.411743164063	-263.9849548339844	332.0668029785157	-1175.881591796875	-337.4602050781251	297.9253845214844	-1213.6591796875	-295.0212097167969	287.9695434570313	-1200.418579101563	-294.1045227050782	211.6237182617188	-1160.530639648438	-366.3577880859376	129.5438995361328	-1169.051391601563	-334.0170593261719	143.9802551269532	-1087.99755859375	-429.5601806640626	101.6808166503907	-1120.16455078125	-215.9395904541016	56.76940536499025	-1102.671752929688	-216.5537872314454	52.28620910644533	-1148.8974609375	-270.5908508300782	41.34493255615235	-1197.858642578125	-245.6241149902344	816.5634765625002	-907.3665771484377	-205.2923583984376	763.5304565429689	-913.3899536132815	-174.4130554199219	768.5901489257815	-925.2556762695315	-228.2977294921876	683.9382934570314	-924.4050292968752	-219.9998626708985	559.3963012695314	-937.682556152344	-229.2043914794922	550.1220703125001	-1067.402709960938	-233.1104431152344	368.7298278808594	-956.3022460937502	-326.0957031250001	321.0190124511719	-927.9907226562502	-285.5369873046876	302.0984191894532	-938.963562011719	-286.1243896484376	251.9453125000001	-971.5911865234377	-373.7613830566407	159.3896789550782	-945.3227539062502	-352.2361145019532	167.5647430419922	-1032.395385742188	-445.3654174804689	127.0012664794922	-1002.333923339844	-229.5064697265626	76.65356445312501	-1006.991455078125	-234.2733154296876	78.41341400146486	-967.1878662109377	-280.7568664550782	64.91672515869142	-915.681579589844	nan	nan	nan	nan	nan	nan	
186	0.925	-170.4089508056641	1781.731811523438	-1161.482543945313	-295.3386840820313	1733.65478515625	-1204.488037109375	-350.7563781738282	1696.9580078125	-1073.339599609375	-363.5137939453126	1577.178588867188	-1119.255981445313	-411.8249511718751	1261.523803710938	-1097.022583007813	-241.2501525878907	1496.926025390625	-1120.453002929688	-293.7496337890626	1541.624389648438	-1279.344360351563	-201.9028320312501	1380.135986328125	-1365.6806640625	-159.5403747558594	1378.70654296875	-1339.94775390625	-157.5337066650391	1328.345458984375	-1373.978759765625	-127.9520339965821	1271.926391601563	-1376.80126953125	-159.25634765625	1235.535888671875	-1328.475708007813	114.665023803711	1152.739868164063	-1277.230712890625	113.5450515747071	1138.485717773438	-1351.807983398438	200.8116455078126	1122.181640625	-1277.406005859375	-273.4176635742188	1527.614990234375	-961.757019042969	-233.0761260986329	1330.387329101563	-882.9881591796877	-187.6339416503907	1327.108520507813	-897.9869384765627	-199.1154937744141	1270.365478515625	-882.7409667968752	-161.9622192382813	1215.939208984375	-887.809509277344	-191.8427124023438	1195.069946289063	-956.125183105469	96.54938507080081	1135.004760742188	-997.6204833984377	77.96920776367189	1081.249145507813	-947.2562255859377	180.28515625	1110.217407226563	-983.6348266601565	-252.1515197753907	1073.447387695313	-1212.32861328125	-228.9814605712891	1083.280151367188	-984.4243164062502	-424.0191345214845	1126.791870117188	-1079.135864257813	-433.5716552734376	1094.693725585938	-1104.29345703125	-426.8829040527345	1096.154418945313	-1047.560180664063	-356.1049804687501	813.0477294921877	-1251.62841796875	-310.6693725585938	741.6378173828126	-1255.869018554688	-265.0057067871094	749.9149780273439	-1262.723999023438	-325.5624389648438	687.0775146484376	-1239.481811523438	-290.2254638671876	556.5337524414064	-1228.632690429688	-290.9284362792969	542.6754760742189	-1096.46142578125	-264.1556091308594	332.7152099609376	-1175.7353515625	-337.3469848632813	297.9125366210938	-1213.639038085938	-294.9796752929688	287.9559020996094	-1200.327880859375	-294.0155334472657	211.5065155029297	-1160.427124023438	-366.7408142089844	129.8488159179688	-1168.996459960938	-334.3546447753907	144.241683959961	-1088.027954101563	-429.1231384277345	101.5414962768555	-1120.098999023438	-215.9335479736329	56.7676239013672	-1102.596923828125	-216.5443878173829	52.30759429931642	-1148.861694335938	-270.6147155761719	41.32369995117188	-1197.849731445313	-244.6380157470704	817.0126953125002	-908.055358886719	-203.9086151123047	764.3007202148439	-914.9851074218752	-173.0833740234375	769.2617797851565	-926.766296386719	-226.4017028808594	684.2628173828126	-924.8601684570315	-218.2049713134766	559.9903564453126	-938.441345214844	-227.4736785888672	550.9691772460939	-1068.126342773438	-233.9116363525391	369.4911499023438	-957.0997314453127	-327.0449829101563	323.3672790527344	-929.0430297851565	-286.6797790527344	304.0430603027344	-939.8801269531252	-288.6996154785157	254.0416564941407	-972.4258422851565	-377.0867919921876	162.0503540039063	-946.134216308594	-355.4834594726563	170.4072570800782	-1033.399291992188	-448.4841308593751	129.8165893554688	-1003.367126464844	-233.8667755126954	79.20774078369142	-1008.073120117188	-238.2428741455079	80.80689239501955	-967.7260742187502	-284.4705505371094	67.02630615234376	-916.4431152343752	nan	nan	nan	nan	nan	nan	
187	0.93	-170.5281677246094	1781.727661132813	-1162.490356445313	-295.2539062500001	1733.538818359375	-1205.36962890625	-350.7916564941407	1696.878295898438	-1074.464477539063	-363.7191467285157	1577.232788085938	-1120.255004882813	-412.1560668945314	1261.517333984375	-1097.812866210938	-241.5007476806641	1496.977416992188	-1121.228271484375	-293.6589050292969	1541.71826171875	-1279.999633789063	-201.442123413086	1381.299926757813	-1365.89111328125	-159.056137084961	1379.582763671875	-1339.58984375	-155.7589263916016	1329.822998046875	-1374.5146484375	-125.7226638793946	1273.5693359375	-1377.222534179688	-157.2706146240235	1237.245971679688	-1329.223876953125	118.0819549560547	1156.30712890625	-1276.980224609375	116.5070343017578	1141.630859375	-1351.4306640625	204.0531463623047	1126.360473632813	-1276.905639648438	-273.8353576660157	1527.607788085938	-963.010437011719	-231.8438262939454	1330.763305664063	-884.308532714844	-186.8255462646485	1327.822265625	-898.8134765625002	-197.6507110595704	1271.112060546875	-883.8371582031252	-160.007080078125	1215.406127929688	-889.162292480469	-190.0752105712891	1196.0048828125	-957.7637939453127	98.46524047851565	1138.943725585938	-1000.0263671875	80.41273498535158	1084.381591796875	-949.6331176757815	182.5123138427735	1114.099487304688	-986.4517211914065	-252.7918701171876	1073.038452148438	-1212.132446289063	-229.5575103759766	1083.543090820313	-984.5766601562502	-424.5161743164064	1126.904418945313	-1079.724487304688	-433.9142150878907	1094.701782226563	-1104.736938476563	-427.651092529297	1096.511962890625	-1048.1669921875	-356.1008300781251	812.9956054687502	-1251.827758789063	-310.6936340332032	741.6223754882814	-1255.98681640625	-265.0479125976563	749.8717041015626	-1262.848510742188	-325.5303344726563	687.0432128906251	-1239.6083984375	-290.0625305175782	556.5144653320314	-1228.705688476563	-290.9491882324219	542.7592773437501	-1096.512329101563	-264.0481567382813	332.6421508789063	-1175.677734375	-337.2399902343751	297.9055480957032	-1213.619873046875	-294.8777465820313	287.9472351074219	-1200.312377929688	-294.0959777832032	211.6191101074219	-1160.409057617188	-367.1992187500001	130.1720581054688	-1168.9716796875	-334.3658447265626	144.2227478027344	-1087.975830078125	-428.9366455078126	101.6200027465821	-1120.088256835938	-215.9639739990235	56.70540618896486	-1102.699096679688	-216.5695495605469	52.31136703491212	-1148.902221679688	-270.5120239257813	41.36963653564454	-1197.850952148438	-243.2518310546876	817.4456176757815	-908.8909912109377	-202.479965209961	764.4356079101564	-915.1979980468752	-171.6498107910157	770.0500488281252	-926.993103027344	-224.6444854736329	684.5731201171876	-925.4753417968752	-216.4948730468751	560.8923339843751	-939.349060058594	-225.6956024169922	551.8176879882814	-1068.704345703125	-234.5619659423829	370.9000854492188	-957.837829589844	-328.5752258300782	325.8965454101563	-930.023620605469	-288.2854309082032	305.8112182617188	-940.736999511719	-290.5576477050782	255.7836151123047	-973.2876586914065	-380.2559509277344	165.1875610351563	-946.8750610351565	-358.6508483886719	173.3638000488282	-1034.208984375	-451.9908447265626	133.358642578125	-1004.472290039063	-238.0311737060547	81.7616424560547	-1008.695129394531	-242.0579833984376	82.95932769775392	-968.5258789062502	-289.0313110351563	69.49038696289064	-917.4799804687502	nan	nan	nan	nan	nan	nan	
